<svg width="348" height="254" viewBox="0 0 348 254" fill="none" xmlns="http://www.w3.org/2000/svg">
<path d="M134.855 9.99847C131.177 15.3081 126.18 23.9236 123.311 35.5271C121.089 44.5153 120.868 52.3659 121.158 58.0433C127.132 56.5377 133.711 55.1517 140.841 54.0461C148.598 52.8436 155.841 52.1539 162.446 51.8027C160.902 46.1591 158.154 38.5135 153.069 30.378C146.947 20.5826 139.892 14.0013 134.855 9.99844L134.855 9.99847Z" fill="#EA9127" stroke="white" stroke-width="20" stroke-linejoin="round"/>
<path d="M272.034 28.7297C266.505 31.03 258.614 35.0471 250.601 41.9879C242.454 49.0441 237.305 56.4159 234.239 61.6148C240.299 63.6565 246.853 66.1633 253.751 69.2561C260.612 72.3322 266.814 75.5407 272.346 78.6897C274.261 73.0665 276.512 64.3025 276.406 53.4206C276.304 42.8037 273.997 34.2655 272.034 28.7297L272.034 28.7297Z" fill="#EA9127" stroke="white" stroke-width="20" stroke-linejoin="round"/>
<path d="M119.995 65.8441C118.19 74.9797 116.716 86.3248 116.719 99.3654C116.721 113.265 118.401 125.277 120.398 134.8C130.086 117.075 140.934 106.477 149.469 99.9452C157.254 93.9869 165.662 89.4619 169.957 79.1784C173.255 71.2797 172.7 63.4016 171.622 57.7774C164.898 57.7973 157.333 58.2121 149.117 59.3183C137.93 60.8247 128.147 63.2608 119.995 65.8441Z" fill="#E39334" stroke="white" stroke-width="20" stroke-linejoin="round"/>
<path d="M178.384 57.8245C179.078 61.4525 179.752 67.4106 178.369 74.5179C177.842 77.226 176.62 83.2036 172.541 89.3372C167.388 97.0877 162.712 97.5092 151.026 108.529C148.028 111.356 145.721 113.794 144.299 115.343C158.767 124.526 173.233 133.709 187.7 142.892C195.471 139.72 231.214 124.213 240.665 89.5363C242.03 84.5306 243.034 78.4364 242.933 71.3117C233.581 67.5257 221.911 63.6864 208.213 61.0631C197.114 58.938 187.029 58.0602 178.383 57.8252L178.384 57.8245Z" fill="#F6D365" stroke="white" stroke-width="20" stroke-linejoin="round"/>
<path d="M271.943 85.6631C272.029 90.8399 271.823 96.413 271.181 102.316C268.819 124.022 261.504 141.481 254.776 153.765C254.854 152.741 255.555 140.835 245.841 133.025C236.576 125.575 225.725 128.197 224.563 128.5C229.217 124.241 235.392 117.571 240.534 108.091C248.051 94.2326 249.615 81.2671 249.934 73.9338C257.271 77.8437 264.607 81.7535 271.943 85.6634L271.943 85.6631Z" fill="#EA9127" stroke="white" stroke-width="20" stroke-linejoin="round"/>
<path d="M121.425 142.118C130.126 162.59 138.827 183.062 147.528 203.534C154.216 206.918 164.533 211.173 177.77 213.065C191.735 215.06 203.377 213.629 210.907 212.106C224.695 194.618 238.483 177.131 252.271 159.643C248.288 160.301 243.085 160.964 236.97 161.221C231.811 161.437 225.525 161.384 217.354 160.523C201.1 158.812 200.492 156.338 185.389 154.306C171.794 152.478 171.533 154.38 156.115 152.059C146.933 150.677 140.086 148.958 133.991 146.971C128.838 145.29 124.58 143.535 121.425 142.118L121.425 142.118Z" fill="#F6D365" stroke="white" stroke-width="20" stroke-linejoin="round"/>
<path d="M179.781 149.654C176.132 146.655 171.154 142.713 165.036 138.303C161.757 135.94 159.171 134.178 156.35 132.258C152.185 129.425 146.732 125.795 140.206 121.663C139.063 123.472 137.115 127.091 136.639 132.075C136.221 136.447 137.118 139.949 137.782 141.913C143.111 142.25 148.875 142.852 154.994 143.837C164.272 145.33 172.573 147.414 179.781 149.654L179.781 149.654Z" fill="#532322" stroke="white" stroke-width="20" stroke-linejoin="round"/>
<path d="M192.954 151.448C200.857 147.945 209.488 144.49 218.825 141.261C225.551 138.935 232.049 136.932 238.266 135.203C238.891 137.252 239.877 141.493 238.785 146.659C237.932 150.693 236.167 153.612 234.988 155.258C229.751 154.121 223.984 153.125 217.738 152.424C208.612 151.4 200.272 151.207 192.954 151.448Z" fill="#532322" stroke="white" stroke-width="20" stroke-linejoin="round"/>
<path d="M154.723 214.52C160.595 216.67 168.201 218.875 177.245 220.1C186.397 221.339 194.399 221.221 200.675 220.693C191.778 228.454 182.881 236.216 173.984 243.978C167.564 234.159 161.143 224.34 154.723 214.52Z" fill="#532322" stroke="white" stroke-width="20" stroke-linejoin="round"/>
<path d="M192.783 151.465C197.105 149.56 202.961 147.106 210.041 144.508C213.836 143.116 216.801 142.116 220.035 141.028C224.809 139.421 231.04 137.395 238.438 135.175C239.051 137.224 239.951 141.234 239.067 146.162C238.291 150.486 236.483 153.616 235.316 155.328C230.093 154.216 224.38 153.243 218.222 152.543C208.884 151.481 200.329 151.251 192.784 151.466L192.783 151.465Z" fill="#532322" stroke="white" stroke-width="20" stroke-linejoin="round"/>
<path d="M120.396 134.799C117.571 119.941 115.867 101.808 117.73 81.4033C118.231 75.9132 118.951 70.6865 119.826 65.74C127.786 63.2808 137.25 60.9641 148.02 59.4696C156.664 58.2701 164.601 57.8146 171.621 57.7773C169.869 60.7295 166.906 65.2379 162.42 69.9684C149.436 83.6607 137.907 84.2339 129.589 92.2294C123.409 98.1704 117.398 109.752 120.397 134.799L120.396 134.799Z" fill="#CC5520" stroke="white" stroke-width="20" stroke-linejoin="round"/>
<path d="M226.745 115.487C220.282 113.321 209.353 108.673 199.161 98.6694C183.311 83.114 179.456 64.6351 178.381 57.8246C187.379 58.0691 198.052 59.0141 209.869 61.3885C222.879 64.0027 233.986 67.6892 242.931 71.3111C242.99 76.1529 242.545 82.4818 240.598 89.5852C237.2 101.984 230.894 110.659 226.745 115.486L226.745 115.487Z" fill="#CC5520" stroke="white" stroke-width="20" stroke-linejoin="round"/>
<path d="M249.931 73.9334C257.267 77.8433 264.603 81.7531 271.939 85.663C272.047 93.4831 271.51 102.904 269.486 113.376C266.145 130.663 260.01 144.316 254.772 153.765C256.396 150.442 269.052 123.561 255.749 102.686C253.843 99.6951 251.022 96.2274 246.774 92.9485C247.381 90.8841 247.945 88.6539 248.428 86.2659C249.337 81.761 249.77 77.6046 249.931 73.9338L249.931 73.9334Z" fill="#CC5520" stroke="white" stroke-width="20" stroke-linejoin="round"/>
<path d="M234.239 61.6148C237.204 56.5925 241.899 49.8982 249.044 43.3732C257.575 35.5828 266.15 31.1828 272.034 28.7297C273.893 33.9883 275.845 41.3256 276.304 50.2294C276.937 62.5262 274.447 72.4766 272.346 78.6894C272.336 70.0102 267.555 62.0626 259.982 58.1803C251.675 53.922 241.407 55.2722 234.239 61.6148Z" fill="#CC5520" stroke="white" stroke-width="20" stroke-linejoin="round"/>
<path d="M121.16 58.0435C120.866 52.2953 121.09 44.1866 123.477 34.8788C126.372 23.5891 131.252 15.199 134.857 9.9987C139.351 13.5683 145.029 18.8542 150.315 26.2575C157.274 36.0034 160.693 45.4092 162.449 51.803C157.274 43.2487 147.319 38.9559 137.966 41.1051C129.737 42.9959 123.211 49.5878 121.161 58.0436L121.16 58.0435Z" fill="#CC5520" stroke="white" stroke-width="20" stroke-linejoin="round"/>
<path d="M147.528 203.534C138.827 183.062 130.126 162.59 121.425 142.118C125.849 152.644 131.603 158.813 135.775 162.388C161.685 184.584 204.716 173.655 227.046 167.959C238.306 165.087 247.105 161.766 252.217 159.689C238.447 177.161 224.677 194.633 210.907 212.106C203.527 213.599 192.26 214.989 178.745 213.197C164.978 211.372 154.303 206.963 147.528 203.534L147.528 203.534Z" fill="#EA9127" stroke="white" stroke-width="20" stroke-linejoin="round"/>
<path d="M178.382 57.829C179.195 61.7655 180.02 68.5217 178.08 76.4634C177.434 79.1042 176.104 85.1723 171.4 90.9459C167.715 95.4685 165.088 96.778 158.693 101.896C155 104.852 149.917 109.259 144.299 115.346C149.671 118.073 156.018 120.692 163.312 122.658C188.02 129.32 209.64 124.742 221.479 121.139C223.235 119.256 224.99 117.374 226.747 115.49C216.638 108.47 203.353 97.3714 191.587 80.7657C185.831 72.6419 181.565 64.7895 178.383 57.8287L178.382 57.829Z" fill="#EA9127" stroke="white" stroke-width="20" stroke-linejoin="round"/>
<path d="M134.958 10.0089C132.952 12.7758 130.834 16.1129 128.875 20.036C125.696 26.4006 123.933 32.3138 122.918 37.0409C123.317 35.6518 125.439 28.7866 131.866 25.8026C139.196 22.4003 149.23 25.3891 155.222 33.7805C152.385 28.8642 148.421 23.1012 142.919 17.3448C140.207 14.5066 137.51 12.0778 134.958 10.0089L134.958 10.0089Z" fill="#903518" stroke="white" stroke-width="20" stroke-linejoin="round"/>
<path d="M272.033 28.7296C273.27 31.8861 274.478 35.6856 275.332 40.0616C276.736 47.2623 276.702 53.5659 276.287 58.3219C276.307 57.0763 276.31 49.3507 270.56 44.529C264.374 39.3419 254.007 39.5892 246.224 46.0468C249.986 42.2677 255.076 37.9029 261.673 33.9475C265.34 31.7492 268.849 30.0507 272.033 28.7296L272.033 28.7296Z" fill="#903518" stroke="white" stroke-width="20" stroke-linejoin="round"/>
<path d="M210.906 212.107C221.24 198.995 231.574 185.882 241.908 172.77C233.133 180.639 215.431 194.312 189.257 200.737C172.283 204.903 157.567 204.592 147.527 203.535C154.731 207.162 166.264 211.864 181.142 213.465C193.391 214.784 203.709 213.55 210.906 212.107Z" fill="#CC5520" stroke="white" stroke-width="20" stroke-linejoin="round"/>
<path d="M133.855 9.99847C130.177 15.3081 125.18 23.9236 122.311 35.5271C120.089 44.5153 119.868 52.3659 120.158 58.0433C126.132 56.5377 132.711 55.1517 139.841 54.0461C147.598 52.8436 154.841 52.1539 161.446 51.8027C159.902 46.1591 157.154 38.5135 152.069 30.378C145.947 20.5826 138.892 14.0013 133.855 9.99844L133.855 9.99847Z" fill="#EA9127"/>
<path d="M271.034 28.7297C265.505 31.03 257.614 35.0471 249.601 41.9879C241.454 49.0441 236.305 56.4159 233.239 61.6148C239.299 63.6565 245.853 66.1633 252.751 69.2561C259.612 72.3322 265.814 75.5407 271.346 78.6897C273.261 73.0665 275.512 64.3025 275.406 53.4206C275.304 42.8037 272.997 34.2655 271.034 28.7297L271.034 28.7297Z" fill="#EA9127"/>
<path d="M118.995 65.8441C117.19 74.9797 115.716 86.3248 115.719 99.3654C115.721 113.265 117.401 125.277 119.398 134.8C129.086 117.075 139.934 106.477 148.469 99.9452C156.254 93.9869 164.662 89.4619 168.957 79.1784C172.255 71.2797 171.7 63.4016 170.622 57.7774C163.898 57.7973 156.333 58.2121 148.117 59.3183C136.93 60.8247 127.147 63.2608 118.995 65.8441Z" fill="#E39334"/>
<path d="M177.384 57.8245C178.078 61.4525 178.752 67.4106 177.369 74.5179C176.842 77.226 175.62 83.2036 171.541 89.3372C166.388 97.0877 161.712 97.5092 150.026 108.529C147.028 111.356 144.721 113.794 143.299 115.343C157.767 124.526 172.233 133.709 186.7 142.892C194.471 139.72 230.214 124.213 239.665 89.5363C241.03 84.5306 242.034 78.4364 241.933 71.3117C232.581 67.5257 220.911 63.6864 207.213 61.0631C196.114 58.938 186.029 58.0602 177.383 57.8252L177.384 57.8245Z" fill="#F6D365"/>
<path d="M270.943 85.6631C271.029 90.8399 270.823 96.413 270.181 102.316C267.819 124.022 260.504 141.481 253.776 153.765C253.854 152.741 254.555 140.835 244.841 133.025C235.576 125.575 224.725 128.197 223.563 128.5C228.217 124.241 234.392 117.571 239.534 108.091C247.051 94.2326 248.615 81.2671 248.934 73.9338C256.271 77.8437 263.607 81.7535 270.943 85.6634L270.943 85.6631Z" fill="#EA9127"/>
<path d="M120.425 142.118C129.126 162.59 137.827 183.062 146.528 203.534C153.216 206.918 163.533 211.173 176.77 213.065C190.735 215.06 202.377 213.629 209.907 212.106C223.695 194.618 237.483 177.131 251.271 159.643C247.288 160.301 242.085 160.964 235.97 161.221C230.811 161.437 224.525 161.384 216.354 160.523C200.1 158.812 199.492 156.338 184.389 154.306C170.794 152.478 170.533 154.38 155.115 152.059C145.933 150.677 139.086 148.958 132.991 146.971C127.838 145.29 123.58 143.535 120.425 142.118L120.425 142.118Z" fill="#F6D365"/>
<path d="M178.781 149.654C175.132 146.655 170.154 142.713 164.036 138.303C160.757 135.94 158.171 134.178 155.35 132.258C151.185 129.425 145.732 125.795 139.206 121.663C138.063 123.472 136.115 127.091 135.639 132.075C135.221 136.447 136.118 139.949 136.782 141.913C142.111 142.25 147.875 142.852 153.994 143.837C163.272 145.33 171.573 147.414 178.781 149.654L178.781 149.654Z" fill="#532322"/>
<path d="M191.954 151.448C199.857 147.945 208.488 144.49 217.825 141.261C224.551 138.935 231.049 136.932 237.266 135.203C237.891 137.252 238.877 141.493 237.785 146.659C236.932 150.693 235.167 153.612 233.988 155.258C228.751 154.121 222.984 153.125 216.738 152.424C207.612 151.4 199.272 151.207 191.954 151.448Z" fill="#532322"/>
<path d="M153.723 214.52C159.595 216.67 167.201 218.875 176.245 220.1C185.397 221.339 193.399 221.221 199.675 220.693C190.778 228.454 181.881 236.216 172.984 243.978C166.564 234.159 160.143 224.34 153.723 214.52Z" fill="#532322"/>
<path d="M191.783 151.465C196.105 149.56 201.961 147.106 209.041 144.508C212.836 143.116 215.801 142.116 219.035 141.028C223.809 139.421 230.04 137.395 237.438 135.175C238.051 137.224 238.951 141.234 238.067 146.162C237.291 150.486 235.483 153.616 234.316 155.328C229.093 154.216 223.38 153.243 217.222 152.543C207.884 151.481 199.329 151.251 191.784 151.466L191.783 151.465Z" fill="#532322"/>
<path d="M119.396 134.799C116.571 119.941 114.867 101.808 116.73 81.4033C117.231 75.9132 117.951 70.6865 118.826 65.74C126.786 63.2808 136.25 60.9641 147.02 59.4696C155.664 58.2701 163.601 57.8146 170.621 57.7773C168.869 60.7295 165.906 65.2379 161.42 69.9684C148.436 83.6607 136.907 84.2339 128.589 92.2294C122.409 98.1704 116.398 109.752 119.397 134.799L119.396 134.799Z" fill="#CC5520"/>
<path d="M225.745 115.487C219.282 113.321 208.353 108.673 198.161 98.6694C182.311 83.114 178.456 64.6351 177.381 57.8246C186.379 58.0691 197.052 59.0141 208.869 61.3885C221.879 64.0027 232.986 67.6892 241.931 71.3111C241.99 76.1529 241.545 82.4818 239.598 89.5852C236.2 101.984 229.894 110.659 225.745 115.486L225.745 115.487Z" fill="#CC5520"/>
<path d="M248.931 73.9334C256.267 77.8433 263.603 81.7531 270.939 85.663C271.047 93.4831 270.51 102.904 268.486 113.376C265.145 130.663 259.01 144.316 253.772 153.765C255.396 150.442 268.052 123.561 254.749 102.686C252.843 99.6951 250.022 96.2274 245.774 92.9485C246.381 90.8841 246.945 88.6539 247.428 86.2659C248.337 81.761 248.77 77.6046 248.931 73.9338L248.931 73.9334Z" fill="#CC5520"/>
<path d="M233.239 61.6148C236.204 56.5925 240.899 49.8982 248.044 43.3732C256.575 35.5828 265.15 31.1828 271.034 28.7297C272.893 33.9883 274.845 41.3256 275.304 50.2294C275.937 62.5262 273.447 72.4766 271.346 78.6894C271.336 70.0102 266.555 62.0626 258.982 58.1803C250.675 53.922 240.407 55.2722 233.239 61.6148Z" fill="#CC5520"/>
<path d="M120.16 58.0435C119.866 52.2953 120.09 44.1866 122.477 34.8788C125.372 23.5891 130.252 15.199 133.857 9.9987C138.351 13.5683 144.029 18.8542 149.315 26.2575C156.274 36.0034 159.693 45.4092 161.449 51.803C156.274 43.2487 146.319 38.9559 136.966 41.1051C128.737 42.9959 122.211 49.5878 120.161 58.0436L120.16 58.0435Z" fill="#CC5520"/>
<path d="M146.528 203.534C137.827 183.062 129.126 162.59 120.425 142.118C124.849 152.644 130.603 158.813 134.775 162.388C160.685 184.584 203.716 173.655 226.046 167.959C237.306 165.087 246.105 161.766 251.217 159.689C237.447 177.161 223.677 194.633 209.907 212.106C202.527 213.599 191.26 214.989 177.745 213.197C163.978 211.372 153.303 206.963 146.528 203.534L146.528 203.534Z" fill="#EA9127"/>
<path d="M177.382 57.829C178.195 61.7655 179.02 68.5217 177.08 76.4634C176.434 79.1042 175.104 85.1723 170.4 90.9459C166.715 95.4685 164.088 96.778 157.693 101.896C154 104.852 148.917 109.259 143.299 115.346C148.671 118.073 155.018 120.692 162.312 122.658C187.02 129.32 208.64 124.742 220.479 121.139C222.235 119.256 223.99 117.374 225.747 115.49C215.638 108.47 202.353 97.3714 190.587 80.7657C184.831 72.6419 180.565 64.7895 177.383 57.8287L177.382 57.829Z" fill="#EA9127"/>
<path d="M133.958 10.0089C131.952 12.7758 129.834 16.1129 127.875 20.036C124.696 26.4006 122.933 32.3138 121.918 37.0409C122.317 35.6518 124.439 28.7866 130.866 25.8026C138.196 22.4003 148.23 25.3891 154.222 33.7805C151.385 28.8642 147.421 23.1012 141.919 17.3448C139.207 14.5066 136.51 12.0778 133.958 10.0089L133.958 10.0089Z" fill="#903518"/>
<path d="M271.033 28.7296C272.27 31.8861 273.478 35.6856 274.332 40.0616C275.736 47.2623 275.702 53.5659 275.287 58.3219C275.307 57.0763 275.31 49.3507 269.56 44.529C263.374 39.3419 253.007 39.5892 245.224 46.0468C248.986 42.2677 254.076 37.9029 260.673 33.9475C264.34 31.7492 267.849 30.0507 271.033 28.7296L271.033 28.7296Z" fill="#903518"/>
<path d="M209.906 212.107C220.24 198.995 230.574 185.882 240.908 172.77C232.133 180.639 214.431 194.312 188.257 200.737C171.283 204.903 156.567 204.592 146.527 203.535C153.731 207.162 165.264 211.864 180.142 213.465C192.391 214.784 202.709 213.55 209.906 212.107Z" fill="#CC5520"/>
<path d="M15 211.5C18.9344 211.5 22.1182 208.955 24.1911 205.639C26.286 202.287 27.5 197.812 27.5 193C27.5 188.188 26.286 183.713 24.1911 180.361C22.1182 177.045 18.9344 174.5 15 174.5C11.0656 174.5 7.88183 177.045 5.80894 180.361C3.71402 183.713 2.5 188.188 2.5 193C2.5 197.812 3.71402 202.287 5.80894 205.639C7.88183 208.955 11.0656 211.5 15 211.5Z" fill="#CC5520" stroke="white" stroke-width="5"/>
<path d="M296.415 214.845C300.284 214.131 302.954 211.051 304.391 207.414C305.843 203.737 306.225 199.116 305.352 194.384C304.48 189.652 302.474 185.472 299.806 182.555C297.166 179.67 293.574 177.745 289.704 178.458C285.835 179.172 283.166 182.252 281.729 185.889C280.277 189.566 279.894 194.186 280.767 198.919C281.64 203.651 283.645 207.831 286.313 210.748C288.953 213.633 292.546 215.558 296.415 214.845Z" fill="#CC5520" stroke="white" stroke-width="5"/>
<path d="M55 211.5C58.9344 211.5 62.1182 208.955 64.1911 205.639C66.286 202.287 67.5 197.812 67.5 193C67.5 188.188 66.286 183.713 64.1911 180.361C62.1182 177.045 58.9344 174.5 55 174.5C51.0656 174.5 47.8818 177.045 45.8089 180.361C43.714 183.713 42.5 188.188 42.5 193C42.5 197.812 43.714 202.287 45.8089 205.639C47.8818 208.955 51.0656 211.5 55 211.5Z" fill="#CC5520" stroke="white" stroke-width="5"/>
<path d="M335.751 207.591C339.621 206.877 342.29 203.797 343.727 200.16C345.179 196.484 345.562 191.863 344.689 187.131C343.816 182.398 341.811 178.218 339.143 175.302C336.503 172.416 332.91 170.491 329.041 171.204C325.172 171.918 322.502 174.998 321.065 178.635C319.613 182.312 319.231 186.933 320.103 191.665C320.976 196.397 322.982 200.577 325.65 203.494C328.29 206.379 331.882 208.304 335.751 207.591Z" fill="#CC5520" stroke="white" stroke-width="5"/>
<path d="M35 214.5C38.9344 214.5 42.1182 211.955 44.1911 208.639C46.286 205.287 47.5 200.812 47.5 196C47.5 191.188 46.286 186.713 44.1911 183.361C42.1182 180.045 38.9344 177.5 35 177.5C31.0656 177.5 27.8818 180.045 25.8089 183.361C23.714 186.713 22.5 191.188 22.5 196C22.5 200.812 23.714 205.287 25.8089 208.639C27.8818 211.955 31.0656 214.5 35 214.5Z" fill="#EA9127" stroke="white" stroke-width="5"/>
<path d="M316.627 214.169C320.497 213.455 323.166 210.375 324.603 206.738C326.055 203.062 326.438 198.441 325.565 193.709C324.692 188.977 322.687 184.796 320.019 181.88C317.379 178.994 313.786 177.069 309.917 177.782C306.048 178.496 303.378 181.576 301.941 185.214C300.489 188.89 300.107 193.511 300.979 198.243C301.852 202.975 303.858 207.155 306.526 210.072C309.166 212.957 312.758 214.882 316.627 214.169Z" fill="#EA9127" stroke="white" stroke-width="5"/>
</svg>
